<svg xmlns="http://www.w3.org/2000/svg" viewBox="0 0 640 530" width="640" height="530">
  <defs>
    <linearGradient id="bg1" x1="0" y1="0" x2="1" y2="1">
      <stop offset="0%" stop-color="#11455B"/>
      <stop offset="100%" stop-color="#1B6E8C"/>
    </linearGradient>
  </defs>
  <rect width="640" height="530" fill="url(#bg1)"/>
  <circle cx="560" cy="420" r="170" fill="#2FCB6E" opacity="0.12"/>
  <circle cx="80" cy="60" r="120" fill="#ffffff" opacity="0.05"/>

  <g transform="translate(470,60)" opacity="0.95">
    <rect x="0" y="0" width="140" height="140" rx="24" fill="#ffffff" opacity="0.08"/>
    <g transform="translate(30,30) scale(3.3)" fill="#2FCB6E">
      <path d="M4.5 12.5a2 2 0 100-4 2 2 0 000 4zM9.5 8.5a2 2 0 100-4 2 2 0 000 4zM14.5 8.5a2 2 0 100-4 2 2 0 000 4zM19.5 12.5a2 2 0 100-4 2 2 0 000 4zM12 21c-3 0-5.5-1.8-5.5-4.2 0-2 2-3.3 5.5-3.3s5.5 1.3 5.5 3.3C17.5 19.2 15 21 12 21z"/>
    </g>
  </g>

  <rect x="80" y="150" width="150" height="34" rx="17" fill="#2FCB6E"/>
  <text x="100" y="173" font-family="Arial, sans-serif" font-size="16" font-weight="700" fill="#ffffff">FLASH SALE</text>

  <text x="80" y="250" font-family="Arial, sans-serif" font-size="38" font-weight="800" fill="#ffffff">Dog &amp; Cat Food</text>
  <text x="80" y="296" font-family="Arial, sans-serif" font-size="38" font-weight="800" fill="#ffffff">Up to 30% Off</text>
  <text x="80" y="336" font-family="Arial, sans-serif" font-size="18" fill="#ffffffcc">Premium nutrition, delivered fast</text>
  <text x="80" y="360" font-family="Arial, sans-serif" font-size="18" fill="#ffffffcc">from vendors near you</text>

  <rect x="80" y="390" width="170" height="52" rx="12" fill="#2FCB6E"/>
  <text x="115" y="424" font-family="Arial, sans-serif" font-size="18" font-weight="700" fill="#ffffff">Shop Now</text>
</svg>
