<svg xmlns="http://www.w3.org/2000/svg" viewBox="0 0 640 530" width="640" height="530">
  <defs>
    <linearGradient id="bg3" x1="0" y1="0" x2="1" y2="1">
      <stop offset="0%" stop-color="#1B6E8C"/>
      <stop offset="100%" stop-color="#11455B"/>
    </linearGradient>
  </defs>
  <rect width="640" height="530" fill="url(#bg3)"/>
  <circle cx="560" cy="80" r="150" fill="#2FCB6E" opacity="0.1"/>
  <circle cx="520" cy="460" r="120" fill="#ffffff" opacity="0.06"/>

  <g transform="translate(470,60)" opacity="0.95">
    <rect x="0" y="0" width="140" height="140" rx="24" fill="#ffffff" opacity="0.08"/>
    <g transform="translate(30,30) scale(3.3)" fill="#2FCB6E">
      <path d="M4 20V10a8 8 0 0116 0v10M4 20h16M8 20v-4a4 4 0 018 0v4" stroke="#2FCB6E" stroke-width="1.4" fill="none" stroke-linecap="round" stroke-linejoin="round"/>
    </g>
  </g>

  <rect x="80" y="150" width="210" height="34" rx="17" fill="#2FCB6E"/>
  <text x="100" y="173" font-family="Arial, sans-serif" font-size="16" font-weight="700" fill="#ffffff">FARM ESSENTIALS</text>

  <text x="80" y="250" font-family="Arial, sans-serif" font-size="32" font-weight="800" fill="#ffffff">Farm Animal &amp;</text>
  <text x="80" y="296" font-family="Arial, sans-serif" font-size="32" font-weight="800" fill="#ffffff">Poultry Feed</text>
  <text x="80" y="336" font-family="Arial, sans-serif" font-size="18" fill="#ffffffcc">Bulk feed and supplies delivered</text>
  <text x="80" y="360" font-family="Arial, sans-serif" font-size="18" fill="#ffffffcc">straight to your farm</text>

  <rect x="80" y="390" width="170" height="52" rx="12" fill="#2FCB6E"/>
  <text x="115" y="424" font-family="Arial, sans-serif" font-size="18" font-weight="700" fill="#ffffff">Shop Now</text>
</svg>
