<svg xmlns="http://www.w3.org/2000/svg" viewBox="0 0 640 530" width="640" height="530">
  <defs>
    <linearGradient id="bg2" x1="0" y1="0" x2="1" y2="1">
      <stop offset="0%" stop-color="#0E3A4D"/>
      <stop offset="100%" stop-color="#2FCB6E"/>
    </linearGradient>
  </defs>
  <rect width="640" height="530" fill="url(#bg2)"/>
  <circle cx="540" cy="450" r="160" fill="#ffffff" opacity="0.07"/>
  <circle cx="90" cy="70" r="110" fill="#11455B" opacity="0.15"/>

  <g transform="translate(470,60)" opacity="0.95">
    <rect x="0" y="0" width="140" height="140" rx="24" fill="#ffffff" opacity="0.1"/>
    <g transform="translate(30,30) scale(3.3)" fill="#ffffff">
      <path d="M18 6l1-1m-4 4L20.5 3.5M14 8l2 2-8 8-3 1 1-3 8-8zM6 18l-2 2" stroke="#ffffff" stroke-width="1.4" fill="none" stroke-linecap="round" stroke-linejoin="round"/>
    </g>
  </g>

  <rect x="80" y="150" width="230" height="34" rx="17" fill="#11455B"/>
  <text x="100" y="173" font-family="Arial, sans-serif" font-size="16" font-weight="700" fill="#ffffff">HEALTH &amp; WELLNESS</text>

  <text x="80" y="250" font-family="Arial, sans-serif" font-size="34" font-weight="800" fill="#ffffff">Vaccines &amp;</text>
  <text x="80" y="296" font-family="Arial, sans-serif" font-size="34" font-weight="800" fill="#ffffff">Medications</text>
  <text x="80" y="336" font-family="Arial, sans-serif" font-size="18" fill="#ffffffcc">Keep your pets and livestock</text>
  <text x="80" y="360" font-family="Arial, sans-serif" font-size="18" fill="#ffffffcc">protected all year round</text>

  <rect x="80" y="390" width="170" height="52" rx="12" fill="#11455B"/>
  <text x="115" y="424" font-family="Arial, sans-serif" font-size="18" font-weight="700" fill="#ffffff">Shop Now</text>
</svg>
